<?xml version="1.0" standalone="no"?>
<!DOCTYPE svg PUBLIC "-//W3C//DTD SVG 20010904//EN"
 "http://www.w3.org/TR/2001/REC-SVG-20010904/DTD/svg10.dtd">
<svg version="1.0" xmlns="http://www.w3.org/2000/svg"
 width="1600.000000pt" height="750.000000pt" viewBox="0 0 1600.000000 750.000000"
 preserveAspectRatio="xMidYMid meet">

<g transform="translate(0.000000,750.000000) scale(0.100000,-0.100000)"
fill="#000000" stroke="none">
<path d="M0 3750 l0 -3750 8000 0 8000 0 0 3750 0 3750 -4669 0 c-3726 0
-4670 -3 -4674 -12 -2 -7 -2 -42 1 -78 10 -120 7 -227 -7 -244 -8 -9 -10 -16
-6 -16 4 0 1 -8 -6 -17 -12 -15 -12 -16 1 -8 12 7 13 6 4 -6 -6 -8 -14 -21
-17 -29 -4 -8 -4 23 0 70 7 100 -3 103 -17 4 -10 -71 -13 -89 -23 -114 -5 -15
-17 -62 -23 -89 -1 -8 -7 -17 -12 -20 -21 -14 -31 -48 -19 -61 7 -7 7 -10 1
-7 -9 5 -67 -93 -68 -118 -1 -5 -13 -11 -28 -13 -16 -2 -28 -7 -28 -12 0 -5 8
-6 18 -3 14 6 15 4 5 -9 -7 -8 -10 -18 -6 -22 4 -4 -1 -4 -11 0 -16 6 -18 4
-13 -17 6 -22 5 -23 -8 -6 -15 21 -26 10 -20 -22 2 -12 0 -19 -5 -16 -4 3 -20
-8 -33 -25 -14 -16 -33 -30 -43 -30 -10 0 -14 -3 -11 -7 4 -3 -9 -17 -29 -30
-30 -21 -38 -22 -51 -11 -14 11 -15 11 -5 -7 11 -22 12 -21 -45 -26 -10 -1
-24 -7 -32 -13 -11 -8 -13 -8 -7 2 5 9 -2 12 -26 12 -26 0 -30 -3 -18 -11 13
-9 13 -10 -2 -6 -9 3 -18 3 -21 0 -3 -2 -41 -6 -84 -7 -43 -2 -116 -8 -163
-15 -85 -12 -171 -9 -243 10 -29 8 -43 7 -55 -3 -15 -12 -16 -11 -3 4 11 15
11 19 -3 24 -9 3 -13 11 -9 17 3 6 1 7 -6 3 -8 -6 -9 -12 -2 -20 8 -9 7 -13
-4 -13 -8 0 -12 4 -9 8 2 4 -37 28 -88 53 -51 26 -119 62 -152 81 -51 31 -95
50 -56 25 9 -6 10 -10 3 -10 -21 0 -24 18 -6 30 17 10 17 10 1 8 -10 -2 -47
23 -84 57 -37 33 -72 60 -78 60 -14 0 -15 26 -2 45 10 13 9 13 -6 1 -17 -12
-23 -9 -19 12 1 5 -3 6 -7 3 -12 -7 -44 28 -35 37 3 4 -4 7 -16 7 -12 0 -20 4
-17 9 4 5 -9 22 -26 37 -18 15 -26 25 -17 22 9 -4 22 -2 30 4 11 8 10 9 -4 4
-10 -3 -25 2 -35 13 -35 37 -50 59 -45 65 4 3 1 6 -6 6 -7 0 -10 4 -7 8 3 5
-6 20 -20 35 -15 16 -20 27 -12 27 10 0 10 2 0 9 -8 4 -14 12 -13 17 1 22 -12
53 -20 49 -4 -3 -6 4 -4 15 2 11 0 20 -6 20 -5 0 -9 11 -9 24 0 14 -5 28 -12
32 -7 5 -8 3 -3 -6 6 -9 4 -11 -4 -5 -9 5 -9 11 -3 17 7 7 7 19 2 34 -5 13 -7
24 -4 24 4 0 2 6 -5 13 -8 10 -7 17 2 27 9 10 9 11 -1 6 -13 -8 -24 12 -28 53
-1 14 -2 29 -3 34 -1 4 -1047 7 -2326 7 l-2325 0 0 -3750z m6580 3155 c0 -2
-9 -3 -19 -2 -11 0 -18 5 -15 9 4 6 34 0 34 -7z m-310 -399 c0 -2 -9 -6 -20
-9 -11 -3 -18 -1 -14 4 5 9 34 13 34 5z m-73 -22 c-3 -3 -12 -4 -19 -1 -8 3
-5 6 6 6 11 1 17 -2 13 -5z m-550 -60 c-3 -3 -12 -4 -19 -1 -8 3 -5 6 6 6 11
1 17 -2 13 -5z m176 -1 c-13 -2 -33 -2 -45 0 -13 2 -3 4 22 4 25 0 35 -2 23
-4z m194 1 c-3 -3 -12 -4 -19 -1 -8 3 -5 6 6 6 11 1 17 -2 13 -5z"/>
<path d="M4793 7135 c0 -8 4 -12 9 -9 5 3 6 10 3 15 -9 13 -12 11 -12 -6z"/>
<path d="M6335 6651 c-10 -17 12 -21 25 -6 10 12 10 15 -3 15 -9 0 -18 -4 -22
-9z"/>
<path d="M6039 6518 c-5 -18 -6 -38 -1 -34 7 8 12 36 6 36 -2 0 -4 -1 -5 -2z"/>
<path d="M5613 6493 c20 -2 54 -2 75 0 20 2 3 4 -38 4 -41 0 -58 -2 -37 -4z"/>
<path d="M5768 6493 c17 -2 47 -2 65 0 17 2 3 4 -33 4 -36 0 -50 -2 -32 -4z"/>
</g>
</svg>
